<svg width="70" height="70" viewBox="0 0 70 70" fill="none" xmlns="http://www.w3.org/2000/svg">
<rect width="70" height="70" rx="10" fill="#242424"/>
<path d="M11.104 48V22.8H13.3L24.82 42.456H23.668L35.08 22.8H37.276V48H34.72V26.796H35.332L24.82 44.796H23.56L12.976 26.796H13.66V48H11.104Z" fill="#FEE07E"/>
<path d="M49.8068 48.576C47.8388 48.576 46.0628 48.264 44.4788 47.64C42.8948 46.992 41.5748 46.056 40.5188 44.832L45.0908 39.432C45.7628 40.248 46.4228 40.872 47.0708 41.304C47.7188 41.712 48.3908 41.916 49.0868 41.916C50.9108 41.916 51.8228 40.872 51.8228 38.784V29.208H43.2548V22.8H60.2108V38.28C60.2108 41.736 59.3228 44.316 57.5468 46.02C55.7708 47.724 53.1908 48.576 49.8068 48.576Z" fill="white"/>
</svg>
