<svg width="288" height="86" viewBox="0 0 288 86" fill="none" xmlns="http://www.w3.org/2000/svg">
<rect width="288" height="86" rx="10" fill="#242424"/>
<path d="M37.104 56V30.8H39.3L50.82 50.456H49.668L61.08 30.8H63.276V56H60.72V34.796H61.332L50.82 52.796H49.56L38.976 34.796H39.66V56H37.104ZM77.4988 56V46.64L78.1108 48.296L67.4188 30.8H70.2628L79.6588 46.172H78.1468L87.5428 30.8H90.2068L79.5148 48.296L80.1268 46.64V56H77.4988Z" fill="#FEE07E"/>
<path d="M98.6584 56.576C96.6904 56.576 94.9144 56.264 93.3304 55.64C91.7464 54.992 90.4264 54.056 89.3704 52.832L93.9424 47.432C94.6144 48.248 95.2744 48.872 95.9224 49.304C96.5704 49.712 97.2424 49.916 97.9384 49.916C99.7624 49.916 100.674 48.872 100.674 46.784V37.208H92.1064V30.8H109.062V46.28C109.062 49.736 108.174 52.316 106.398 54.02C104.622 55.724 102.042 56.576 98.6584 56.576ZM125.018 56.576C121.154 56.576 118.142 55.532 115.982 53.444C113.822 51.356 112.742 48.428 112.742 44.66V30.8H121.238V44.408C121.238 46.328 121.586 47.696 122.282 48.512C122.978 49.304 123.914 49.7 125.09 49.7C126.29 49.7 127.226 49.304 127.898 48.512C128.594 47.696 128.942 46.328 128.942 44.408V30.8H137.294V44.66C137.294 48.428 136.214 51.356 134.054 53.444C131.894 55.532 128.882 56.576 125.018 56.576ZM141.189 56V30.8H153.609C156.417 30.8 158.889 31.316 161.025 32.348C163.161 33.356 164.829 34.796 166.029 36.668C167.229 38.54 167.829 40.772 167.829 43.364C167.829 45.98 167.229 48.236 166.029 50.132C164.829 52.004 163.161 53.456 161.025 54.488C158.889 55.496 156.417 56 153.609 56H141.189ZM149.685 49.376H153.249C154.449 49.376 155.493 49.148 156.381 48.692C157.293 48.236 158.001 47.564 158.505 46.676C159.009 45.764 159.261 44.66 159.261 43.364C159.261 42.092 159.009 41.012 158.505 40.124C158.001 39.236 157.293 38.564 156.381 38.108C155.493 37.652 154.449 37.424 153.249 37.424H149.685V49.376ZM184.143 56.576C182.103 56.576 180.207 56.252 178.455 55.604C176.727 54.956 175.227 54.044 173.955 52.868C172.683 51.668 171.687 50.264 170.967 48.656C170.271 47.048 169.923 45.296 169.923 43.4C169.923 41.48 170.271 39.728 170.967 38.144C171.687 36.536 172.683 35.144 173.955 33.968C175.227 32.768 176.727 31.844 178.455 31.196C180.207 30.548 182.103 30.224 184.143 30.224C186.207 30.224 188.103 30.548 189.831 31.196C191.559 31.844 193.059 32.768 194.331 33.968C195.603 35.144 196.587 36.536 197.283 38.144C198.003 39.728 198.363 41.48 198.363 43.4C198.363 45.296 198.003 47.048 197.283 48.656C196.587 50.264 195.603 51.668 194.331 52.868C193.059 54.044 191.559 54.956 189.831 55.604C188.103 56.252 186.207 56.576 184.143 56.576ZM184.143 49.7C184.935 49.7 185.667 49.556 186.339 49.268C187.035 48.98 187.635 48.572 188.139 48.044C188.667 47.492 189.075 46.832 189.363 46.064C189.651 45.272 189.795 44.384 189.795 43.4C189.795 42.416 189.651 41.54 189.363 40.772C189.075 39.98 188.667 39.32 188.139 38.792C187.635 38.24 187.035 37.82 186.339 37.532C185.667 37.244 184.935 37.1 184.143 37.1C183.351 37.1 182.607 37.244 181.911 37.532C181.239 37.82 180.639 38.24 180.111 38.792C179.607 39.32 179.211 39.98 178.923 40.772C178.635 41.54 178.491 42.416 178.491 43.4C178.491 44.384 178.635 45.272 178.923 46.064C179.211 46.832 179.607 47.492 180.111 48.044C180.639 48.572 181.239 48.98 181.911 49.268C182.607 49.556 183.351 49.7 184.143 49.7ZM209.043 50.6L208.575 41.276L218.079 30.8H227.331L216.675 42.536L211.959 47.36L209.043 50.6ZM201.447 56V30.8H209.799V56H201.447ZM218.007 56L210.591 46.208L216.099 40.376L227.835 56H218.007ZM224.972 56L235.988 30.8H244.34L255.356 56H246.572L238.436 34.832H241.748L233.612 56H224.972ZM231.524 51.608L233.684 45.488H245.276L247.436 51.608H231.524Z" fill="white"/>
</svg>
